:SAMPLES-PER-SECOND 30
:FULLY-SPECIFIED
:DEGREES
229
root  -4.34035 47.5317 -1.05408 7.7399 -20.0261 8.85025
RightUpLeg  -7.37591 -6.83055 -0.775258
RightLeg  10.305 7.7428 0.898364
RightFoot  44.1317 -2.00418 5.31904
RightToes  -40.0822 -0.219141 -0.315586
Spine  0.814035 -1.40595 -12.4685
Spine1  2.03602 -2.74572 -23.7539
HEad  -43.9345 -38.3439 41.669
LeftShoulder1  0 -2.42657e-020 -4.95415e-022
LeftArm  -33.9473 -7.95934 -15.4326
LeftForeArm  44.4982 -27.2325 -5.18287
LeftHand  -0.388185 -12.9032 3.06349
RightShoulder  0 2.42657e-020 1.07489e-018
RightArm  -80.8613 20.5242 -39.6881
RightForeArm  38.2636 -0.123551 -0.0193317
RightHand  4.21592 13.6356 34.6088
LeftUpLeg  -7.80002 14.4514 -0.225373
LeftLeg  5.45079 -14.4711 -0.442804
LeftFoot  35.3732 2.77414 -8.6846
LeftToes  -25.1503 1.28829e-006 1.15665e-007
230
root  -5.28822 46.3537 -1.09293 7.61882 -19.1497 8.14969
RightUpLeg  -8.93864 -10.6025 -1.34398
RightLeg  11.7433 8.43072 1.19178
RightFoot  43.2372 -2.12056 5.72502
RightToes  -42.8201 -0.241394 -0.330492
Spine  1.27386 -1.3337 -12.1655
Spine1  2.88297 -2.54766 -23.1003
HEad  -46.054 -36.2181 42.2267
LeftShoulder1  0 -2.42657e-020 -4.95415e-022
LeftArm  -27.6378 -8.2589 -15.0134
LeftForeArm  47.8284 -26.8105 -5.08342
LeftHand  -0.312364 -14.2012 2.13827
RightShoulder  0 2.42657e-020 1.07489e-018
RightArm  -82.9378 22.3642 -35.7677
RightForeArm  34.0224 -0.11085 -0.0131636
RightHand  2.24079 11.1694 23.0038
LeftUpLeg  -7.68638 11.7494 0.512003
LeftLeg  6.47327 -11.6331 -0.564047
LeftFoot  32.7948 1.91348 -6.49618
LeftToes  -22.8388 1.28829e-006 1.15665e-007
231
root  -6.1957 44.7501 -1.09604 7.67021 -18.3136 7.43301
RightUpLeg  -9.90242 -11.8609 -2.49938
RightLeg  10.6769 8.61846 1.05569
RightFoot  41.3572 -2.0066 5.69051
RightToes  -43.4116 -0.246294 -0.333572
Spine  1.38794 -1.03828 -11.3106
Spine1  2.76888 -1.86503 -21.885
HEad  -47.6645 -34.7516 42.0389
LeftShoulder1  0 -2.42657e-020 -4.95415e-022
LeftArm  -21.7315 -7.75183 -16.1384
LeftForeArm  47.9257 -29.1241 -5.60907
LeftHand  -0.225267 -14.4883 1.40276
RightShoulder  0 2.42657e-020 1.07489e-018
RightArm  -83.4208 22.8566 -34.7709
RightForeArm  35.4555 -0.115191 -0.0151424
RightHand  1.9089 12.3785 17.8467
LeftUpLeg  -6.89604 11.7787 0.862362
LeftLeg  7.11996 -11.0464 -0.660341
LeftFoot  31.1307 1.63311 -5.85813
LeftToes  -24.1395 1.28829e-006 1.15665e-007
232
root  -7.06584 42.7007 -1.043 7.88101 -17.6737 6.49727
RightUpLeg  -10.3917 -7.24696 -4.08822
RightLeg  8.1768 5.47218 0.431228
RightFoot  35.7296 -0.914407 3.21398
RightToes  -40.9647 -0.226235 -0.320506
Spine  1.36576 -0.615828 -10.1007
Spine1  2.18182 -0.796246 -20.3251
HEad  -48.1175 -33.834 40.5596
LeftShoulder1  0 -2.42657e-020 -4.95415e-022
LeftArm  -16.3063 -6.43188 -18.1101
LeftForeArm  44.9525 -34.6519 -6.97935
LeftHand  -0.246088 -14.2134 1.60445
RightShoulder  0 2.42657e-020 1.07489e-018
RightArm  -88.4953 23.5738 -34.9439
RightForeArm  45.3519 -0.143649 -0.0316807
RightHand  1.79156 14.178 14.7087
LeftUpLeg  -5.79822 10.2276 1.18437
LeftLeg  8.82035 -11.534 -1.03111
LeftFoot  23.93 1.00684 -4.7485
LeftToes  -26.6876 1.28829e-006 1.15665e-007
233
root  -7.90223 40.2762 -1.0275 7.80559 -16.3962 5.12115
RightUpLeg  -11.5784 -0.186893 -5.31881
RightLeg  8.34811 -2.16345 -0.174901
RightFoot  29.2565 0.372405 -1.04916
RightToes  -32.8949 -0.164355 -0.271574
Spine  1.83253 -0.668308 -8.89578
Spine1  2.823 -0.663371 -18.3512
HEad  -48.3122 -32.7954 38.467
LeftShoulder1  0 -2.42657e-020 -4.95415e-022
LeftArm  -12.5524 -5.49472 -20.2678
LeftForeArm  46.118 -41.3106 -8.89945
LeftHand  -0.197392 -14.3072 1.20328
RightShoulder  0 2.42657e-020 1.07489e-018
RightArm  -98.5656 24.6144 -35.868
RightForeArm  53.7542 -0.165275 -0.0493907
RightHand  1.43836 14.98 11.2825
LeftUpLeg  -5.88444 5.56959 1.62487
LeftLeg  14.9551 -13.3787 -2.64252
LeftFoot  16.8302 0.589289 -3.98183
LeftToes  -23.0064 1.28829e-006 1.15665e-007
